<svg xmlns="http://www.w3.org/2000/svg" xmlns:xlink="http://www.w3.org/1999/xlink" width="500" zoomAndPan="magnify" viewBox="0 0 375 374.999991" height="500" preserveAspectRatio="xMidYMid meet" version="1.0"><defs><g/><clipPath id="id1"><path d="M 54.195312 116 L 337 116 L 337 327 L 54.195312 327 Z M 54.195312 116 " clip-rule="nonzero"/></clipPath><clipPath id="id2"><path d="M 175 12.761719 L 199 12.761719 L 199 79 L 175 79 Z M 175 12.761719 " clip-rule="nonzero"/></clipPath><clipPath id="id3"><path d="M 47.941406 226.523438 L 326.941406 226.523438 L 326.941406 263.273438 L 47.941406 263.273438 Z M 47.941406 226.523438 " clip-rule="nonzero"/></clipPath></defs><path fill="#000000" d="M 187.5 0 C 83.945312 0 0 83.945312 0 187.5 C 0 291.054688 83.945312 375 187.5 375 C 291.054688 375 375 291.054688 375 187.5 C 375 83.945312 291.054688 0 187.5 0 " fill-opacity="1" fill-rule="nonzero"/><g clip-path="url(#id1)"><path fill="#d3ad7f" d="M 298.046875 159.976562 C 301.441406 159.867188 304.617188 159.535156 307.792969 159.535156 C 316.222656 159.535156 323.449219 162.492188 329.46875 168.410156 C 335.492188 174.324219 337.574219 181.554688 336.804688 189.878906 C 334.617188 211.125 323.011719 226.132812 305.601562 237.304688 C 292.792969 245.519531 278.886719 251.433594 264.433594 256.035156 C 259.945312 257.460938 255.34375 258.445312 250.964844 260.089844 C 248.996094 260.855469 247.570312 262.714844 245.273438 264.46875 C 248.007812 264.6875 249.980469 264.90625 252.058594 265.125 C 268.15625 266.988281 284.03125 269.726562 299.03125 275.859375 C 302.316406 277.175781 305.492188 279.039062 308.449219 281.117188 C 313.375 284.625 314.03125 288.128906 311.625 293.714844 C 308.777344 300.285156 303.519531 304.121094 297.5 307.40625 C 283.703125 314.746094 268.921875 319.125 253.59375 320.988281 C 240.125 322.632812 226.546875 323.726562 213.082031 324.929688 C 203.226562 325.808594 193.371094 326.683594 183.519531 326.902344 C 176.730469 327.011719 169.941406 326.136719 163.152344 325.699219 C 155.925781 325.152344 148.699219 324.820312 141.472656 324.164062 C 120.34375 322.300781 99.210938 320.332031 79.5 311.679688 C 73.152344 308.941406 66.800781 306.089844 61.546875 301.164062 C 58.589844 298.425781 56.726562 294.917969 55.414062 291.304688 C 54.320312 288.238281 55.414062 285.390625 57.601562 283.089844 C 60.777344 279.695312 64.828125 277.722656 69.101562 275.96875 C 80.050781 271.480469 91.546875 268.960938 103.261719 266.988281 C 109.503906 266.003906 115.851562 265.34375 122.421875 264.46875 C 122.203125 264.140625 121.984375 263.921875 121.765625 263.703125 C 114.539062 257.679688 108.84375 250.339844 104.574219 241.90625 C 91.4375 216.601562 79.609375 190.753906 71.289062 163.480469 C 70.304688 160.304688 69.648438 157.128906 68.992188 153.949219 C 67.675781 147.269531 69.867188 141.902344 75.449219 137.738281 C 81.910156 132.921875 89.355469 130.074219 96.800781 127.445312 C 109.613281 122.734375 123.078125 120.542969 136.546875 119.230469 C 145.523438 118.351562 154.503906 117.476562 163.480469 116.820312 C 168.847656 116.378906 174.320312 116.160156 179.6875 116.269531 C 189.210938 116.378906 198.738281 116.492188 208.152344 117.148438 C 226.546875 118.351562 245.054688 119.996094 262.898438 124.816406 C 271.878906 127.222656 280.636719 130.511719 288.738281 135.21875 C 290.710938 136.316406 292.460938 137.738281 294.324219 139.164062 C 299.359375 143.214844 300.347656 148.472656 299.140625 154.5 C 298.8125 156.140625 298.375 158.003906 298.046875 159.976562 Z M 73.589844 158.441406 C 73.699219 158.113281 73.589844 158.222656 73.589844 158.332031 C 73.808594 158.988281 73.917969 159.753906 74.136719 160.414062 C 82.675781 188.453125 94.941406 214.960938 108.515625 240.917969 C 115.304688 254.0625 125.597656 263.484375 138.847656 269.835938 C 154.722656 277.394531 171.585938 280.570312 189.210938 279.804688 C 204.652344 279.148438 219.210938 275.421875 232.898438 268.191406 C 243.957031 262.277344 252.828125 254.0625 258.738281 242.890625 C 271.113281 219.890625 281.953125 196.121094 290.601562 171.476562 C 292.132812 167.09375 293.449219 162.605469 295.089844 157.785156 C 292.023438 159.644531 289.398438 161.507812 286.550781 162.933594 C 270.5625 171.039062 253.265625 173.996094 235.746094 176.1875 C 228.191406 177.171875 220.527344 178.046875 212.863281 178.59375 C 201.804688 179.363281 190.746094 180.128906 179.6875 180.019531 C 160.855469 179.800781 142.132812 177.828125 123.40625 174.980469 C 111.800781 173.226562 100.195312 170.929688 89.246094 166.328125 C 83.882812 163.917969 78.734375 161.070312 73.589844 158.441406 Z M 126.910156 267.097656 C 125.488281 267.316406 124.285156 267.425781 123.078125 267.644531 C 111.035156 269.507812 98.992188 271.152344 87.058594 273.230469 C 79.171875 274.65625 71.398438 276.847656 64.390625 280.898438 C 62.09375 282.214844 60.011719 284.074219 58.261719 286.046875 C 56.835938 287.582031 57.054688 289.441406 58.042969 291.414062 C 59.792969 294.699219 62.75 296.5625 65.816406 298.207031 C 72.605469 301.710938 79.832031 304.011719 87.277344 305.761719 C 101.839844 309.378906 116.730469 311.679688 131.730469 313.101562 C 141.582031 313.976562 151.546875 315.074219 161.402344 315.511719 C 170.378906 315.949219 179.46875 315.839844 188.445312 315.839844 C 204.539062 315.949219 220.746094 315.074219 236.730469 312.992188 C 249.105469 311.457031 261.367188 309.597656 273.738281 307.40625 C 283.484375 305.652344 293.121094 303.023438 302.097656 298.425781 C 304.398438 297.328125 306.585938 295.90625 308.449219 294.152344 C 312.71875 290.320312 312.5 286.59375 307.902344 283.199219 C 306.039062 281.777344 304.070312 280.460938 301.878906 279.695312 C 296.515625 277.722656 291.148438 275.3125 285.566406 274.328125 C 271.441406 271.699219 257.097656 269.617188 242.863281 267.316406 C 242.535156 267.207031 242.097656 267.425781 241.660156 267.535156 C 241.660156 267.972656 241.660156 268.191406 241.769531 268.523438 C 243.519531 274 242.316406 278.925781 238.703125 283.089844 C 236.292969 285.828125 233.335938 288.457031 230.269531 290.539062 C 223.59375 294.917969 216.039062 296.890625 208.261719 298.097656 C 195.890625 300.066406 183.410156 300.503906 170.816406 299.300781 C 162.824219 298.535156 155.050781 297.4375 147.496094 294.699219 C 140.707031 292.289062 134.683594 288.894531 130.195312 283.089844 C 126.910156 278.816406 125.378906 274.109375 127.128906 268.742188 C 126.910156 268.191406 126.800781 267.753906 126.910156 267.097656 Z M 89.902344 161.945312 C 92.75 156.359375 97.675781 153.730469 102.933594 151.539062 C 106.765625 149.898438 110.816406 148.691406 114.867188 147.707031 C 127.679688 144.421875 140.816406 142.996094 154.066406 142.230469 C 164.027344 141.683594 174.101562 141.136719 184.066406 141.136719 C 193.8125 141.136719 203.554688 141.683594 213.300781 142.230469 C 226.988281 142.996094 240.5625 144.421875 253.8125 147.816406 C 263.226562 150.226562 272.644531 152.964844 278.558594 161.835938 C 281.84375 160.851562 286.988281 157.894531 289.726562 155.046875 C 295.308594 149.351562 294.980469 145.734375 289.507812 140.917969 C 286.550781 138.289062 283.046875 136.207031 279.542969 134.453125 C 265.527344 127.445312 250.308594 124.59375 234.980469 122.953125 C 224.46875 121.855469 213.957031 121.417969 203.445312 120.871094 C 196.875 120.433594 190.417969 119.996094 183.847656 119.996094 C 174.867188 120.105469 166 120.871094 157.023438 121.199219 C 142.242188 121.746094 127.460938 123.0625 113.007812 126.238281 C 102.714844 128.539062 92.640625 131.605469 83.664062 137.300781 C 80.925781 139.054688 78.40625 141.246094 76.328125 143.65625 C 73.917969 146.503906 74.027344 148.910156 76.21875 151.980469 C 79.5 156.90625 84.539062 159.535156 89.902344 161.945312 Z M 292.351562 177.828125 C 294.105469 177.390625 295.417969 177.0625 296.84375 176.734375 C 311.1875 173.667969 322.132812 185.824219 318.410156 199.078125 C 316.222656 206.636719 311.734375 212.441406 306.039062 217.589844 C 298.703125 224.269531 290.164062 229.089844 281.292969 233.363281 C 280.746094 233.691406 280.089844 234.019531 279.542969 234.347656 C 279.652344 234.566406 279.761719 234.785156 279.871094 235.003906 C 294.652344 233.910156 306.039062 224.707031 318.960938 218.246094 C 318.410156 219.011719 318.191406 219.5625 317.863281 220 C 317.207031 220.65625 316.550781 221.3125 315.894531 221.96875 C 309.433594 227.777344 302.207031 232.59375 294.761719 237.085938 C 284.140625 243.4375 272.753906 247.929688 261.476562 252.859375 C 260.054688 253.515625 258.738281 254.28125 257.425781 254.941406 C 259.945312 254.609375 262.242188 253.953125 264.433594 253.296875 C 280.527344 247.929688 295.855469 241.140625 309.652344 231.171875 C 323.121094 221.53125 332.097656 208.9375 333.851562 191.957031 C 334.835938 182.976562 332.753906 175.089844 325.417969 169.285156 C 316.988281 162.492188 307.464844 162.054688 297.5 164.574219 C 297.0625 164.683594 296.625 165.121094 296.515625 165.453125 C 295.089844 169.394531 293.777344 173.449219 292.351562 177.828125 Z M 267.0625 235.660156 C 267.171875 235.773438 267.28125 235.882812 267.390625 235.992188 C 270.671875 234.566406 273.847656 233.253906 277.132812 231.828125 C 287.207031 227.554688 296.625 222.191406 304.835938 214.851562 C 309.542969 210.6875 313.484375 206.089844 315.128906 199.84375 C 317.644531 190.207031 312.609375 181.332031 303.410156 179.800781 C 299.578125 179.144531 295.746094 179.910156 292.242188 181.554688 C 291.476562 181.882812 290.710938 182.757812 290.273438 183.523438 C 282.9375 199.953125 275.601562 216.492188 268.375 233.035156 C 267.9375 233.910156 267.390625 234.785156 267.0625 235.660156 Z M 69.101562 302.476562 C 68.992188 302.585938 68.882812 302.804688 68.773438 302.914062 C 73.699219 305.324219 78.515625 307.84375 83.445312 309.925781 C 101.179688 317.265625 120.011719 319.015625 138.847656 320.550781 C 146.402344 321.207031 153.847656 321.644531 161.402344 321.972656 C 169.285156 322.414062 177.277344 322.742188 185.160156 322.742188 C 192.824219 322.742188 200.488281 322.082031 208.152344 321.863281 C 217.351562 321.535156 226.21875 319.785156 234.433594 315.839844 C 227.753906 316.277344 221.074219 316.824219 214.394531 317.15625 C 200.378906 317.8125 186.367188 318.796875 172.242188 318.140625 C 156.035156 317.265625 139.941406 316.605469 123.847656 314.636719 C 111.253906 313.101562 98.882812 311.128906 86.617188 307.84375 C 80.816406 306.3125 74.902344 304.339844 69.101562 302.476562 Z M 182.863281 284.074219 C 164.136719 282.980469 146.621094 279.257812 130.632812 269.835938 C 129.210938 274.109375 129.648438 277.394531 132.277344 280.570312 C 133.808594 282.433594 135.5625 284.183594 137.421875 285.609375 C 143.007812 289.992188 149.578125 291.960938 156.253906 293.714844 C 164.578125 295.796875 173.007812 295.796875 181.4375 296.015625 C 191.074219 296.125 200.707031 296.234375 210.125 294.152344 C 214.832031 293.058594 219.433594 291.523438 224.140625 290.210938 C 224.03125 289.992188 224.03125 289.660156 223.921875 289.441406 C 223.59375 289.550781 223.265625 289.550781 222.933594 289.660156 C 218.007812 290.648438 213.082031 292.070312 208.152344 292.730469 C 192.496094 294.808594 176.949219 294.480469 161.402344 291.960938 C 155.269531 290.976562 149.355469 289.441406 143.664062 286.8125 C 142.679688 286.375 141.800781 285.609375 140.816406 284.953125 C 140.925781 284.734375 141.035156 284.515625 141.144531 284.292969 C 141.800781 284.402344 142.460938 284.515625 143.117188 284.625 C 146.402344 285.5 149.6875 286.484375 152.96875 287.140625 C 159.976562 288.457031 166.984375 289.222656 174.210938 288.566406 C 177.386719 288.347656 180.015625 286.703125 182.863281 284.074219 Z M 182.863281 284.074219 " fill-opacity="1" fill-rule="nonzero"/></g><g clip-path="url(#id2)"><path fill="#d3ad7f" d="M 178.261719 78.042969 C 175.636719 76.183594 175.195312 73.554688 175.308594 71.035156 C 175.527344 68.296875 176.292969 65.449219 176.949219 62.710938 C 177.386719 61.175781 178.152344 59.644531 178.921875 58.21875 C 184.285156 48.359375 184.503906 37.734375 182.644531 27.113281 C 181.984375 23.167969 179.46875 19.664062 177.824219 15.828125 C 177.496094 14.953125 177.496094 13.859375 177.386719 12.980469 C 178.371094 12.980469 179.46875 12.761719 180.34375 13.199219 C 190.199219 17.144531 196.65625 24.042969 198.300781 34.886719 C 199.503906 42.554688 198.410156 49.894531 194.140625 56.355469 C 190.308594 62.160156 185.597656 67.527344 181.328125 73.113281 C 180.34375 74.648438 179.359375 76.292969 178.261719 78.042969 Z M 178.699219 71.800781 C 180.34375 69.828125 181.765625 68.1875 182.972656 66.433594 C 186.257812 61.941406 189.980469 57.78125 192.496094 52.851562 C 198.628906 40.804688 196.4375 26.890625 184.503906 18.347656 C 183.957031 17.910156 183.300781 17.582031 182.753906 17.144531 C 188.335938 30.835938 189.648438 44.089844 182.53125 57.453125 C 180.125 61.722656 178.152344 66.214844 178.699219 71.800781 Z M 178.699219 71.800781 " fill-opacity="1" fill-rule="nonzero"/></g><path fill="#d3ad7f" d="M 152.96875 75.195312 C 152.96875 70.597656 154.394531 66.214844 156.582031 62.269531 C 159.101562 57.453125 161.730469 52.742188 161.621094 47.15625 C 161.511719 44.089844 160.855469 41.132812 160.527344 38.066406 C 160.414062 37.1875 160.636719 35.984375 161.292969 35.4375 C 161.730469 34.996094 163.042969 35.105469 163.699219 35.328125 C 169.285156 37.625 171.363281 42.664062 172.898438 47.921875 C 174.976562 55.042969 172.898438 61.832031 170.160156 68.40625 C 169.285156 70.375 168.410156 72.457031 167.859375 74.539062 C 166.765625 78.8125 168.410156 82.753906 169.722656 86.808594 C 171.144531 91.078125 172.679688 95.242188 173.445312 99.621094 C 173.882812 101.921875 173.007812 104.550781 172.351562 106.851562 C 172.132812 107.617188 170.816406 107.945312 169.941406 108.496094 C 169.613281 107.835938 169.175781 107.289062 169.066406 106.523438 C 168.191406 102.359375 166.328125 98.636719 163.480469 95.460938 C 161.621094 93.488281 159.867188 91.40625 158.117188 89.324219 C 154.722656 85.382812 152.96875 80.671875 152.96875 75.195312 Z M 163.261719 38.285156 C 163.261719 39.050781 163.152344 39.378906 163.261719 39.707031 C 165.234375 45.839844 164.25 51.648438 161.402344 57.234375 C 160.195312 59.644531 158.882812 62.050781 157.679688 64.460938 C 153.628906 72.566406 153.957031 80.234375 159.539062 87.574219 C 163.371094 92.613281 168.300781 96.773438 170.488281 103.128906 C 170.378906 100.5 170.050781 97.980469 169.175781 95.679688 C 168.191406 92.722656 166.765625 89.984375 165.453125 87.027344 C 162.933594 81.109375 162.933594 75.414062 165.78125 69.5 C 167.421875 66.214844 168.628906 62.710938 169.722656 59.203125 C 171.914062 52.742188 170.488281 46.828125 166.328125 41.570312 C 165.671875 40.363281 164.578125 39.488281 163.261719 38.285156 Z M 163.261719 38.285156 " fill-opacity="1" fill-rule="nonzero"/><path fill="#d3ad7f" d="M 177.605469 277.066406 C 167.640625 276.847656 158.882812 275.421875 150.671875 271.480469 C 150.015625 271.152344 149.578125 270.382812 149.027344 269.835938 C 149.796875 269.617188 150.5625 269.070312 151.21875 269.070312 C 159.429688 269.507812 167.53125 268.960938 175.636719 267.644531 C 184.394531 266.222656 193.152344 264.46875 201.257812 260.855469 C 204.980469 259.210938 208.703125 257.128906 211.875 254.609375 C 213.957031 252.96875 215.929688 250.558594 216.804688 248.148438 C 218.773438 242.671875 222.277344 238.949219 227.097656 236.210938 C 229.613281 234.785156 232.023438 233.472656 234.652344 232.265625 C 246.039062 227.007812 255.453125 219.453125 262.460938 209.046875 C 268.046875 200.941406 273.300781 192.726562 278.667969 184.511719 C 279.105469 183.851562 279.871094 183.523438 280.527344 183.085938 C 280.746094 183.851562 281.183594 184.511719 281.292969 185.277344 C 281.402344 185.824219 281.183594 186.480469 280.964844 187.140625 C 273.519531 205.648438 264.652344 223.503906 254.46875 240.699219 C 243.738281 258.882812 227.207031 268.851562 207.167969 273.558594 C 202.132812 274.765625 196.984375 275.53125 191.839844 276.078125 C 186.914062 276.628906 181.765625 276.738281 177.605469 277.066406 Z M 177.605469 277.066406 " fill-opacity="1" fill-rule="nonzero"/><path fill="#d3ad7f" d="M 182.644531 248.585938 C 170.269531 248.257812 160.527344 239.933594 157.679688 227.996094 C 155.925781 220.546875 156.582031 213.425781 160.636719 206.855469 C 163.042969 202.910156 166.984375 201.378906 171.363281 201.597656 C 183.738281 202.035156 195.125 210.6875 199.066406 222.410156 C 200.160156 225.695312 200.929688 229.089844 201.695312 232.484375 C 202.351562 235.113281 201.585938 237.414062 200.050781 239.496094 C 195.5625 245.628906 189.429688 248.476562 182.644531 248.585938 Z M 161.839844 212.878906 C 162.277344 218.027344 164.25 222.300781 166.65625 226.460938 C 171.035156 233.800781 176.621094 239.605469 185.378906 241.359375 C 188.445312 242.015625 191.402344 242.34375 194.359375 240.917969 C 196.765625 239.714844 196.875 238.070312 194.6875 236.648438 C 189.101562 233.253906 185.378906 228.214844 182.09375 222.738281 C 180.34375 219.890625 178.589844 217.042969 176.730469 214.304688 C 174.320312 210.6875 170.925781 208.058594 166.984375 206.308594 C 165.671875 205.648438 164.578125 205.757812 164.027344 207.183594 C 163.152344 209.046875 162.496094 211.015625 161.839844 212.878906 Z M 198.519531 237.085938 C 200.929688 231.9375 196.984375 218.136719 191.292969 213.097656 C 184.613281 207.183594 177.058594 202.910156 167.640625 204.664062 C 169.503906 206.089844 171.585938 207.183594 173.445312 208.496094 C 178.152344 211.894531 181.109375 216.710938 184.066406 221.421875 C 187.242188 226.570312 190.746094 231.28125 195.890625 234.675781 C 196.875 235.332031 197.535156 236.210938 198.519531 237.085938 Z M 187.242188 244.644531 C 172.242188 242.34375 165.234375 231.71875 159.976562 218.574219 C 158.773438 238.179688 175.855469 248.257812 187.242188 244.644531 Z M 187.242188 244.644531 " fill-opacity="1" fill-rule="nonzero"/><path fill="#d3ad7f" d="M 251.402344 271.699219 C 256 272.027344 260.601562 272.027344 265.199219 272.902344 C 274.507812 274.65625 283.8125 276.628906 293.011719 278.816406 C 295.527344 279.367188 297.9375 280.570312 300.238281 281.777344 C 305.820312 284.734375 306.148438 289.550781 301.003906 293.386719 C 296.953125 296.34375 292.351562 297.875 287.644531 299.191406 C 277.242188 302.148438 266.621094 303.902344 255.890625 305.324219 C 244.503906 306.75 233.117188 308.390625 221.730469 309.925781 C 221.074219 310.035156 220.308594 309.597656 219.652344 309.378906 C 220.199219 308.828125 220.746094 308.0625 221.402344 307.953125 C 230.269531 306.203125 239.25 304.667969 248.117188 302.804688 C 257.535156 300.835938 266.839844 298.535156 276.257812 296.34375 C 276.804688 296.234375 277.351562 295.90625 277.789062 295.6875 C 280.417969 294.480469 280.527344 293.605469 278.230469 291.742188 C 275.054688 289.222656 274.945312 287.03125 277.789062 284.074219 C 278.230469 283.636719 278.558594 283.199219 279.105469 282.433594 C 277.679688 281.664062 276.585938 280.679688 275.273438 280.242188 C 270.671875 278.707031 265.964844 277.175781 261.257812 275.859375 C 258.410156 274.984375 255.453125 274.4375 252.609375 273.78125 C 252.058594 273.671875 251.511719 273.121094 250.964844 272.792969 C 251.183594 272.355469 251.292969 272.027344 251.402344 271.699219 Z M 251.402344 271.699219 " fill-opacity="1" fill-rule="nonzero"/><path fill="#d3ad7f" d="M 117.824219 301.820312 C 116.730469 301.929688 115.742188 302.148438 114.648438 302.148438 C 102.824219 301.601562 91.109375 300.835938 79.609375 297.765625 C 77.09375 297.109375 74.574219 296.125 72.386719 294.808594 C 68.992188 292.730469 68.550781 289.550781 71.398438 286.8125 C 73.371094 284.84375 75.886719 283.308594 78.40625 282.214844 C 87.496094 278.050781 97.128906 276.078125 106.875 274.546875 C 111.253906 273.890625 115.742188 273.558594 120.234375 273.121094 C 120.78125 273.011719 121.4375 272.902344 121.875 273.121094 C 122.53125 273.449219 123.078125 274 123.734375 274.546875 C 123.1875 275.09375 122.640625 275.859375 121.984375 275.96875 C 118.152344 277.175781 114.101562 277.832031 110.378906 279.367188 C 106.109375 281.117188 101.949219 283.089844 98.003906 285.609375 C 94.171875 288.019531 90.558594 288.675781 86.289062 287.253906 C 82.566406 286.046875 78.953125 286.484375 75.777344 288.894531 C 73.917969 290.320312 73.699219 291.851562 75.667969 292.949219 C 77.859375 294.152344 80.269531 295.136719 82.785156 295.6875 C 92.859375 297.546875 102.933594 299.191406 113.007812 300.945312 C 114.539062 301.164062 116.070312 301.273438 117.605469 301.382812 C 117.824219 301.601562 117.824219 301.710938 117.824219 301.820312 Z M 117.824219 301.820312 " fill-opacity="1" fill-rule="nonzero"/><g clip-path="url(#id3)"><path fill="#ffffff" d="M 305.140625 226.523438 C 317.160156 226.523438 326.90625 234.75 326.90625 244.898438 C 326.90625 255.046875 317.160156 263.273438 305.140625 263.273438 L 69.738281 263.273438 C 57.71875 263.273438 47.972656 255.046875 47.972656 244.898438 C 47.972656 234.75 57.71875 226.523438 69.738281 226.523438 L 305.140625 226.523438 " fill-opacity="1" fill-rule="nonzero"/></g><g fill="#000000" fill-opacity="1"><g transform="translate(153.685542, 252.222478)"><g><path d="M 1.597656 -7.417969 C 1.933594 -5.460938 2.828125 -3.667969 3.808594 -1.960938 C 4.421875 -0.867188 5.234375 0.0546875 6.242188 0.839844 C 6.746094 1.230469 7.28125 1.625 7.953125 1.765625 C 10.105469 2.269531 11.984375 1.875 13.496094 0.140625 C 13.886719 -0.28125 14.25 -0.726562 14.558594 -1.230469 C 15.148438 -2.128906 15.652344 -3.078125 16.15625 -4.03125 C 17.050781 -5.710938 18.003906 -7.363281 18.8125 -9.097656 C 19.039062 -9.601562 18.980469 -9.714844 18.421875 -9.855469 C 18.085938 -9.910156 17.863281 -9.828125 17.722656 -9.519531 C 17.609375 -9.324219 17.5 -9.097656 17.386719 -8.902344 C 16.070312 -6.382812 14.671875 -3.949219 13.1875 -1.539062 C 12.65625 -0.699219 12.066406 0.0859375 11.226562 0.617188 C 9.910156 1.457031 8.34375 1.175781 7.417969 -0.0859375 C 7 -0.671875 6.691406 -1.289062 6.4375 -1.960938 C 5.710938 -3.78125 5.402344 -5.65625 5.234375 -7.585938 C 5.011719 -10.414062 5.152344 -13.1875 6.101562 -15.875 C 6.4375 -16.769531 6.832031 -17.636719 7.417969 -18.394531 C 7.980469 -19.148438 8.734375 -19.429688 9.632812 -19.179688 C 10.695312 -18.871094 11.507812 -18.226562 12.121094 -17.300781 C 12.488281 -16.742188 12.738281 -16.125 12.90625 -15.511719 C 12.992188 -15.175781 13.1875 -15.035156 13.550781 -15.035156 C 14.53125 -15.035156 14.671875 -15.148438 14.671875 -16.183594 C 14.671875 -16.324219 14.671875 -16.492188 14.671875 -16.660156 C 14.503906 -20.496094 10.527344 -22.453125 7.644531 -21.277344 C 5.710938 -20.496094 4.226562 -19.234375 3.191406 -17.414062 C 1.902344 -15.148438 1.34375 -12.765625 1.398438 -10.191406 C 1.429688 -9.265625 1.429688 -8.34375 1.597656 -7.417969 Z M 1.597656 -7.417969 "/></g></g></g><g fill="#000000" fill-opacity="1"><g transform="translate(170.035314, 252.222478)"><g><path d="M 6.859375 -7.980469 C 7.054688 -7.953125 7.222656 -7.894531 7.390625 -7.867188 C 9.015625 -7.476562 10.609375 -7.785156 12.179688 -8.175781 C 12.515625 -8.257812 12.597656 -8.425781 12.515625 -8.761719 C 12.457031 -9.070312 12.234375 -9.097656 11.984375 -9.042969 C 11.675781 -8.960938 11.367188 -8.929688 11.058594 -8.847656 C 9.097656 -8.34375 7.53125 -8.988281 6.160156 -10.359375 C 5.933594 -10.582031 5.710938 -10.808594 5.488281 -11.03125 C 5.207031 -11.339844 4.898438 -11.617188 4.5625 -11.871094 C 3.722656 -12.488281 3.078125 -12.488281 2.269531 -11.84375 C 1.765625 -11.480469 1.398438 -11.003906 1.0625 -10.5 C -0.0273438 -8.820312 -0.589844 -6.972656 -0.757812 -4.984375 C -0.867188 -3.890625 -0.699219 -2.828125 -0.195312 -1.847656 C 0.28125 -0.925781 0.980469 -0.28125 1.988281 -0.0546875 C 3.976562 0.421875 5.488281 -0.363281 6.269531 -2.238281 C 6.972656 -3.976562 7.222656 -5.738281 6.746094 -7.585938 C 6.71875 -7.671875 6.746094 -7.785156 6.71875 -7.921875 C 6.832031 -7.953125 6.832031 -7.980469 6.859375 -7.980469 Z M 4.003906 -9.800781 C 5.488281 -7.335938 5.796875 -4.757812 4.535156 -2.128906 C 4.339844 -1.765625 4.144531 -1.429688 3.835938 -1.148438 C 3.472656 -0.8125 3.136719 -0.839844 2.828125 -1.261719 C 2.632812 -1.511719 2.546875 -1.792969 2.4375 -2.101562 C 2.101562 -3.304688 2.101562 -4.507812 2.269531 -5.710938 C 2.4375 -6.832031 2.632812 -7.953125 2.996094 -9.015625 C 3.136719 -9.433594 3.304688 -9.855469 3.582031 -10.191406 C 3.808594 -10.105469 3.917969 -9.9375 4.003906 -9.800781 Z M 4.003906 -9.800781 "/></g></g></g><g fill="#000000" fill-opacity="1"><g transform="translate(181.205789, 252.222478)"><g><path d="M 5.261719 -3.917969 C 7.140625 -4.589844 10.023438 -6.382812 11.5625 -7.558594 C 11.898438 -7.839844 11.730469 -8.089844 11.5625 -8.316406 C 11.367188 -8.625 11.144531 -8.484375 10.945312 -8.34375 C 9.96875 -7.644531 9.097656 -6.746094 7.980469 -6.214844 C 6.664062 -5.542969 5.125 -4.789062 3.695312 -4.421875 C 3.582031 -5.320312 3.640625 -6.1875 3.640625 -7.027344 C 3.667969 -7.785156 3.667969 -7.785156 4.394531 -8.035156 C 7.25 -8.988281 9.238281 -10.808594 10.21875 -13.664062 C 10.441406 -14.335938 10.640625 -15.007812 10.777344 -15.707031 C 10.945312 -16.660156 11.058594 -17.609375 10.808594 -18.535156 C 10.441406 -19.820312 9.632812 -20.632812 8.289062 -20.886719 C 7.390625 -21.054688 6.550781 -20.800781 5.765625 -20.382812 C 4.703125 -19.820312 3.890625 -18.953125 3.21875 -17.945312 C 2.183594 -16.351562 1.398438 -14.613281 0.925781 -12.765625 C 0 -9.15625 -0.0546875 -5.515625 0.53125 -1.847656 C 0.726562 -0.503906 1.0625 0.785156 1.625 2.015625 C 1.933594 2.632812 2.269531 3.246094 2.773438 3.722656 C 3.613281 4.453125 4.589844 4.5625 5.597656 4.253906 C 6.496094 3.976562 6.804688 3.21875 7 2.378906 C 7.113281 1.902344 7.140625 1.398438 7.082031 0.894531 C 6.914062 -0.617188 6.101562 -1.765625 5.011719 -2.714844 C 4.757812 -2.941406 4.480469 -3.164062 4.117188 -3.472656 C 4.589844 -3.640625 4.925781 -3.78125 5.261719 -3.917969 Z M 4.058594 -12.488281 C 4.285156 -13.886719 4.703125 -15.203125 5.125 -16.546875 C 5.429688 -17.527344 5.933594 -18.421875 6.636719 -19.207031 C 7.363281 -20.019531 8.121094 -19.90625 8.566406 -18.871094 C 9.042969 -17.722656 9.097656 -16.546875 8.792969 -15.371094 C 8.457031 -14.222656 8.0625 -13.074219 7.476562 -11.984375 C 6.71875 -10.582031 5.570312 -9.601562 4.144531 -8.988281 C 4.03125 -8.929688 3.949219 -8.929688 3.695312 -8.875 C 3.75 -10.164062 3.890625 -11.3125 4.058594 -12.488281 Z M 5.683594 2.210938 C 5.65625 2.574219 5.597656 2.941406 5.402344 3.277344 C 5.125 3.695312 4.730469 3.695312 4.507812 3.246094 C 4.367188 2.996094 4.285156 2.714844 4.199219 2.4375 C 3.917969 1.0625 3.835938 -0.363281 3.835938 -1.792969 C 5.039062 -0.699219 5.738281 0.589844 5.683594 2.210938 Z M 5.683594 2.210938 "/></g></g></g><g fill="#000000" fill-opacity="1"><g transform="translate(191.592377, 252.222478)"><g><path d="M 5.261719 -3.917969 C 7.140625 -4.589844 10.023438 -6.382812 11.5625 -7.558594 C 11.898438 -7.839844 11.730469 -8.089844 11.5625 -8.316406 C 11.367188 -8.625 11.144531 -8.484375 10.945312 -8.34375 C 9.96875 -7.644531 9.097656 -6.746094 7.980469 -6.214844 C 6.664062 -5.542969 5.125 -4.789062 3.695312 -4.421875 C 3.582031 -5.320312 3.640625 -6.1875 3.640625 -7.027344 C 3.667969 -7.785156 3.667969 -7.785156 4.394531 -8.035156 C 7.25 -8.988281 9.238281 -10.808594 10.21875 -13.664062 C 10.441406 -14.335938 10.640625 -15.007812 10.777344 -15.707031 C 10.945312 -16.660156 11.058594 -17.609375 10.808594 -18.535156 C 10.441406 -19.820312 9.632812 -20.632812 8.289062 -20.886719 C 7.390625 -21.054688 6.550781 -20.800781 5.765625 -20.382812 C 4.703125 -19.820312 3.890625 -18.953125 3.21875 -17.945312 C 2.183594 -16.351562 1.398438 -14.613281 0.925781 -12.765625 C 0 -9.15625 -0.0546875 -5.515625 0.53125 -1.847656 C 0.726562 -0.503906 1.0625 0.785156 1.625 2.015625 C 1.933594 2.632812 2.269531 3.246094 2.773438 3.722656 C 3.613281 4.453125 4.589844 4.5625 5.597656 4.253906 C 6.496094 3.976562 6.804688 3.21875 7 2.378906 C 7.113281 1.902344 7.140625 1.398438 7.082031 0.894531 C 6.914062 -0.617188 6.101562 -1.765625 5.011719 -2.714844 C 4.757812 -2.941406 4.480469 -3.164062 4.117188 -3.472656 C 4.589844 -3.640625 4.925781 -3.78125 5.261719 -3.917969 Z M 4.058594 -12.488281 C 4.285156 -13.886719 4.703125 -15.203125 5.125 -16.546875 C 5.429688 -17.527344 5.933594 -18.421875 6.636719 -19.207031 C 7.363281 -20.019531 8.121094 -19.90625 8.566406 -18.871094 C 9.042969 -17.722656 9.097656 -16.546875 8.792969 -15.371094 C 8.457031 -14.222656 8.0625 -13.074219 7.476562 -11.984375 C 6.71875 -10.582031 5.570312 -9.601562 4.144531 -8.988281 C 4.03125 -8.929688 3.949219 -8.929688 3.695312 -8.875 C 3.75 -10.164062 3.890625 -11.3125 4.058594 -12.488281 Z M 5.683594 2.210938 C 5.65625 2.574219 5.597656 2.941406 5.402344 3.277344 C 5.125 3.695312 4.730469 3.695312 4.507812 3.246094 C 4.367188 2.996094 4.285156 2.714844 4.199219 2.4375 C 3.917969 1.0625 3.835938 -0.363281 3.835938 -1.792969 C 5.039062 -0.699219 5.738281 0.589844 5.683594 2.210938 Z M 5.683594 2.210938 "/></g></g></g><g fill="#000000" fill-opacity="1"><g transform="translate(201.978965, 252.222478)"><g><path d="M 11.730469 -8.121094 C 11.28125 -8.425781 11.058594 -8.425781 10.777344 -8.089844 C 10.5 -7.753906 10.273438 -7.417969 10.023438 -7.082031 C 8.847656 -5.429688 7.617188 -3.808594 6.300781 -2.269531 C 6.074219 -1.988281 5.851562 -1.734375 5.542969 -1.539062 C 5.125 -1.261719 4.789062 -1.289062 4.421875 -1.679688 C 4.199219 -1.933594 4.003906 -2.238281 3.917969 -2.546875 C 3.445312 -4.058594 3.078125 -5.597656 3.023438 -7.195312 C 3.023438 -7.585938 3.136719 -7.753906 3.527344 -7.867188 C 5.710938 -8.511719 6.914062 -9.996094 7.25 -12.207031 C 7.417969 -13.4375 7.054688 -14.476562 6.019531 -15.203125 C 5.011719 -15.902344 3.917969 -15.761719 2.882812 -15.175781 C 1.960938 -14.613281 1.289062 -13.804688 0.785156 -12.851562 C -0.0546875 -11.226562 -0.390625 -9.492188 -0.476562 -7.671875 C -0.503906 -7.082031 -0.421875 -6.523438 -0.308594 -5.933594 C -0.0546875 -4.367188 0.503906 -2.910156 1.539062 -1.652344 C 2.828125 -0.0859375 6.046875 0.421875 7.644531 -1.734375 C 9.042969 -3.613281 10.414062 -5.515625 11.730469 -7.476562 C 11.871094 -7.671875 12.066406 -7.894531 11.730469 -8.121094 Z M 3.5 -11.5625 C 3.667969 -12.261719 3.917969 -12.960938 4.199219 -13.636719 C 4.285156 -13.859375 4.421875 -14.109375 4.703125 -14.082031 C 4.957031 -14.054688 5.066406 -13.832031 5.179688 -13.605469 C 5.179688 -13.550781 5.207031 -13.496094 5.207031 -13.4375 C 5.683594 -11.984375 4.816406 -9.660156 3.5 -8.875 C 3.386719 -8.792969 3.246094 -8.734375 3.050781 -8.792969 C 3.050781 -9.714844 3.277344 -10.640625 3.5 -11.5625 Z M 3.5 -11.5625 "/></g></g></g><g fill="#000000" fill-opacity="1"><g transform="translate(212.525382, 252.222478)"><g/></g></g><path fill="#ffc236" d="M 253.140625 331.28125 C 253.410156 332.289062 253.578125 333.3125 253.648438 334.351562 C 253.714844 335.394531 253.683594 336.429688 253.554688 337.464844 C 253.421875 338.5 253.191406 339.511719 252.863281 340.5 C 252.535156 341.492188 252.113281 342.441406 251.601562 343.351562 C 251.089844 344.261719 250.492188 345.113281 249.816406 345.910156 C 249.136719 346.707031 248.390625 347.429688 247.570312 348.082031 C 246.753906 348.734375 245.878906 349.304688 244.949219 349.789062 C 244.023438 350.273438 243.054688 350.667969 242.050781 350.964844 C 233.109375 353 224.085938 354.523438 214.972656 355.546875 C 205.863281 356.570312 196.722656 357.082031 187.550781 357.082031 C 178.382812 357.082031 169.242188 356.570312 160.128906 355.550781 C 151.019531 354.527344 141.992188 353 133.054688 350.96875 C 132.050781 350.667969 131.082031 350.277344 130.15625 349.792969 C 129.226562 349.308594 128.351562 348.738281 127.535156 348.085938 C 126.714844 347.433594 125.96875 346.710938 125.289062 345.914062 C 124.609375 345.117188 124.015625 344.265625 123.503906 343.355469 C 122.992188 342.445312 122.570312 341.496094 122.242188 340.503906 C 121.914062 339.515625 121.683594 338.503906 121.550781 337.46875 C 121.417969 336.433594 121.386719 335.398438 121.457031 334.355469 C 121.527344 333.316406 121.695312 332.292969 121.964844 331.285156 C 122.101562 330.757812 122.265625 330.238281 122.453125 329.726562 C 122.644531 329.214844 122.859375 328.714844 123.097656 328.226562 C 123.339844 327.738281 123.605469 327.261719 123.894531 326.800781 C 124.183594 326.335938 124.492188 325.890625 124.828125 325.457031 C 125.160156 325.027344 125.515625 324.613281 125.890625 324.214844 C 126.269531 323.820312 126.664062 323.445312 127.078125 323.085938 C 127.492188 322.730469 127.921875 322.394531 128.371094 322.082031 C 128.816406 321.769531 129.28125 321.476562 129.757812 321.210938 C 130.234375 320.941406 130.726562 320.699219 131.226562 320.480469 C 131.730469 320.265625 132.242188 320.070312 132.761719 319.902344 C 133.285156 319.738281 133.8125 319.597656 134.347656 319.480469 C 134.882812 319.367188 135.425781 319.28125 135.96875 319.21875 C 136.511719 319.160156 137.058594 319.125 137.609375 319.121094 C 138.15625 319.117188 138.703125 319.136719 139.25 319.1875 C 139.792969 319.234375 140.335938 319.3125 140.875 319.414062 C 141.410156 319.519531 141.945312 319.648438 142.46875 319.804688 C 157.320312 323.019531 172.351562 324.628906 187.550781 324.628906 C 202.753906 324.625 217.78125 323.019531 232.636719 319.800781 C 233.160156 319.644531 233.691406 319.515625 234.230469 319.414062 C 234.765625 319.308594 235.308594 319.234375 235.855469 319.183594 C 236.402344 319.132812 236.949219 319.113281 237.496094 319.117188 C 238.042969 319.125 238.589844 319.15625 239.132812 319.21875 C 239.679688 319.277344 240.21875 319.363281 240.753906 319.480469 C 241.289062 319.59375 241.820312 319.734375 242.339844 319.902344 C 242.863281 320.066406 243.375 320.261719 243.875 320.480469 C 244.378906 320.695312 244.867188 320.941406 245.34375 321.207031 C 245.824219 321.472656 246.285156 321.765625 246.734375 322.078125 C 247.179688 322.390625 247.613281 322.726562 248.027344 323.082031 C 248.441406 323.441406 248.835938 323.816406 249.210938 324.210938 C 249.585938 324.609375 249.941406 325.023438 250.277344 325.453125 C 250.609375 325.886719 250.921875 326.332031 251.210938 326.796875 C 251.5 327.257812 251.765625 327.734375 252.003906 328.222656 C 252.246094 328.714844 252.460938 329.214844 252.648438 329.722656 C 252.839844 330.234375 253.003906 330.753906 253.140625 331.28125 Z M 253.140625 331.28125 " fill-opacity="1" fill-rule="nonzero"/><g fill="#000000" fill-opacity="1"><g transform="translate(128.80049, 340.322406)"><g><path d="M 10.640625 1.714844 C 10.488281 -0.597656 10.644531 -2.917969 10.835938 -5.210938 C 10.878906 -5.675781 10.929688 -5.703125 11.371094 -5.582031 C 11.972656 -5.425781 12.578125 -5.289062 13.199219 -5.230469 C 13.382812 -5.230469 13.542969 -5.214844 13.71875 -5.257812 C 13.824219 -5.273438 13.933594 -5.3125 13.964844 -5.445312 C 14.019531 -5.597656 13.917969 -5.683594 13.8125 -5.769531 C 13.621094 -5.914062 13.402344 -5.945312 13.164062 -5.976562 C 12.546875 -6.054688 11.953125 -6.25 11.355469 -6.40625 C 11.082031 -6.46875 10.972656 -6.617188 11.011719 -6.894531 C 11.03125 -6.972656 11.035156 -7.074219 11.054688 -7.171875 C 11.34375 -9.34375 11.652344 -11.527344 11.960938 -13.710938 C 12.117188 -14.761719 12.128906 -14.617188 11.171875 -14.835938 C 10.507812 -14.984375 10.503906 -14.964844 10.183594 -14.359375 C 10.117188 -14.253906 10.046875 -14.125 9.980469 -14.015625 C 8.800781 -12.152344 7.496094 -10.378906 6.28125 -8.539062 C 6.097656 -8.273438 5.917969 -8.210938 5.621094 -8.34375 C 4.945312 -8.617188 4.222656 -8.78125 3.488281 -8.886719 C 2.539062 -9.039062 1.609375 -8.921875 0.722656 -8.527344 C 0.5625 -8.460938 0.378906 -8.359375 0.230469 -8.25 C 0.0585938 -8.125 0.0820312 -7.957031 0.261719 -7.855469 C 0.550781 -7.6875 0.859375 -7.597656 1.183594 -7.667969 C 1.355469 -7.707031 1.53125 -7.75 1.683594 -7.796875 C 2.921875 -8.195312 4.101562 -7.96875 5.269531 -7.519531 C 5.421875 -7.464844 5.488281 -7.386719 5.394531 -7.246094 C 5.351562 -7.152344 5.292969 -7.082031 5.253906 -6.988281 C 3.683594 -4.679688 2.3125 -2.242188 0.980469 0.203125 C 0.910156 0.328125 0.839844 0.457031 0.765625 0.605469 C 0.722656 0.695312 0.769531 0.769531 0.832031 0.84375 C 1.226562 1.199219 1.558594 1.171875 1.84375 0.726562 C 1.96875 0.546875 2.09375 0.351562 2.199219 0.148438 C 2.707031 -0.71875 3.214844 -1.609375 3.722656 -2.5 C 4.539062 -3.933594 5.394531 -5.359375 6.304688 -6.75 C 6.535156 -7.128906 6.554688 -7.125 6.976562 -6.988281 C 7.28125 -6.898438 7.585938 -6.789062 7.890625 -6.679688 C 8.347656 -6.535156 8.347656 -6.535156 8.300781 -6.054688 C 8.195312 -4.949219 8.128906 -3.839844 8.140625 -2.726562 C 8.183594 -1.097656 8.332031 0.511719 8.753906 2.085938 C 9.050781 3.21875 9.78125 3.792969 10.890625 3.964844 C 11.34375 4.046875 11.714844 3.945312 12.0625 3.675781 C 12.339844 3.453125 12.585938 3.179688 12.792969 2.898438 C 13.9375 1.457031 15.019531 -0.0625 15.992188 -1.625 C 16.273438 -2.054688 16.515625 -2.492188 16.742188 -2.953125 C 16.859375 -3.191406 16.8125 -3.347656 16.589844 -3.457031 C 16.457031 -3.507812 16.339844 -3.535156 16.214844 -3.605469 C 16.03125 -3.707031 15.898438 -3.65625 15.792969 -3.476562 C 15.757812 -3.402344 15.714844 -3.308594 15.660156 -3.238281 C 14.480469 -1.292969 13.164062 0.542969 11.671875 2.234375 C 11.449219 2.492188 11.207031 2.742188 10.871094 2.957031 C 10.6875 2.503906 10.675781 2.109375 10.640625 1.714844 Z M 9.015625 -10.832031 C 9.164062 -10.675781 9.054688 -10.558594 9.027344 -10.441406 C 8.847656 -9.558594 8.648438 -8.679688 8.507812 -7.789062 C 8.464844 -7.410156 8.441406 -7.394531 8.09375 -7.496094 C 7.746094 -7.59375 7.402344 -7.691406 7.0625 -7.914062 C 7.714844 -8.894531 8.363281 -9.851562 9.015625 -10.832031 Z M 9.015625 -10.832031 "/></g></g></g><g fill="#000000" fill-opacity="1"><g transform="translate(150.896512, 344.828529)"><g><path d="M 0.25 -6.671875 C 0.160156 -5.1875 0.210938 -3.707031 0.523438 -2.226562 C 0.671875 -1.4375 0.925781 -0.675781 1.347656 0.03125 C 1.65625 0.5625 2.113281 0.910156 2.714844 1.058594 C 3.652344 1.292969 4.464844 1.125 5.164062 0.460938 C 5.375 0.269531 5.566406 0.0546875 5.757812 -0.140625 C 6.800781 -1.347656 7.449219 -2.769531 8.230469 -4.128906 C 8.257812 -4.1875 8.265625 -4.246094 8.273438 -4.285156 C 8.304688 -4.363281 8.273438 -4.445312 8.222656 -4.496094 C 7.9375 -4.757812 7.566406 -4.710938 7.359375 -4.394531 C 7.300781 -4.285156 7.25 -4.191406 7.195312 -4.097656 C 6.464844 -2.96875 5.8125 -1.789062 4.996094 -0.738281 C 4.746094 -0.410156 4.476562 -0.0820312 4.121094 0.148438 C 3.445312 0.617188 3.023438 0.476562 2.769531 -0.289062 C 2.753906 -0.332031 2.722656 -0.394531 2.710938 -0.457031 C 2.429688 -1.730469 2.332031 -3.019531 2.457031 -4.3125 C 2.46875 -4.535156 2.554688 -4.703125 2.71875 -4.863281 C 4.328125 -6.507812 5.570312 -8.410156 6.703125 -10.390625 C 7.21875 -11.285156 7.597656 -12.242188 7.800781 -13.242188 C 7.964844 -13.945312 8.003906 -14.644531 7.824219 -15.359375 C 7.5625 -16.347656 6.738281 -16.949219 5.722656 -16.894531 C 4.90625 -16.847656 4.246094 -16.480469 3.664062 -15.9375 C 2.984375 -15.285156 2.488281 -14.507812 2.070312 -13.703125 C 1.179688 -11.992188 0.714844 -10.179688 0.382812 -8.144531 C 0.347656 -7.765625 0.273438 -7.234375 0.25 -6.671875 Z M 2.566406 -6.480469 C 2.820312 -9.351562 3.480469 -12.125 4.875 -14.671875 C 5.066406 -15.007812 5.253906 -15.324219 5.515625 -15.609375 C 5.898438 -16.019531 6.152344 -15.960938 6.335938 -15.410156 C 6.566406 -14.753906 6.570312 -14.085938 6.429688 -13.398438 C 6.167969 -11.980469 5.632812 -10.664062 4.890625 -9.4375 C 4.332031 -8.488281 3.753906 -7.5625 3.101562 -6.683594 C 2.957031 -6.523438 2.832031 -6.339844 2.660156 -6.140625 C 2.519531 -6.285156 2.554688 -6.378906 2.566406 -6.480469 Z M 2.566406 -6.480469 "/></g></g></g><g fill="#000000" fill-opacity="1"><g transform="translate(165.717272, 346.723819)"><g><path d="M 11.089844 -4.820312 C 10.78125 -4.984375 10.71875 -4.96875 10.488281 -4.585938 C 9.988281 -3.757812 9.527344 -2.910156 9.03125 -2.101562 C 8.4375 -1.121094 7.867188 -0.140625 7.144531 0.730469 C 7.035156 0.882812 6.9375 1.078125 6.714844 1.121094 C 6.613281 0.871094 6.628906 0.652344 6.644531 0.414062 C 6.679688 -0.367188 6.757812 -1.160156 6.875 -1.933594 C 7.144531 -4.0625 7.414062 -6.167969 7.585938 -8.300781 C 7.605469 -8.539062 7.621094 -8.777344 7.578125 -9.019531 C 7.546875 -9.144531 7.515625 -9.265625 7.375 -9.277344 C 6.820312 -9.316406 6.265625 -9.414062 5.714844 -9.273438 C 5.527344 -9.226562 5.40625 -9.214844 5.230469 -9.269531 C 4.800781 -9.398438 4.367188 -9.511719 3.902344 -9.445312 C 2.488281 -9.285156 1.566406 -8.449219 0.9375 -7.25 C 0.40625 -6.246094 0.1875 -5.160156 0.1875 -4.035156 C 0.167969 -3.496094 0.230469 -2.949219 0.414062 -2.417969 C 0.574219 -1.882812 0.957031 -1.636719 1.496094 -1.597656 C 1.933594 -1.546875 2.324219 -1.679688 2.648438 -1.976562 C 2.949219 -2.273438 3.234375 -2.617188 3.480469 -2.980469 C 3.726562 -3.34375 3.972656 -3.707031 4.242188 -4.085938 C 4.371094 -3.957031 4.304688 -3.84375 4.316406 -3.742188 C 4.300781 -2.960938 4.261719 -2.160156 4.347656 -1.375 C 4.40625 -0.507812 4.503906 0.363281 4.867188 1.167969 C 5.351562 2.246094 6.796875 2.53125 7.65625 1.707031 C 7.976562 1.410156 8.242188 1.070312 8.46875 0.683594 C 9.445312 -0.910156 10.386719 -2.546875 11.265625 -4.207031 C 11.472656 -4.59375 11.457031 -4.636719 11.089844 -4.820312 Z M 5.128906 -7.851562 C 5.09375 -7.636719 5.039062 -7.398438 4.925781 -7.207031 C 4.132812 -5.660156 3.285156 -4.15625 2.28125 -2.742188 C 2.125 -2.535156 2 -2.203125 1.6875 -2.304688 C 1.375 -2.40625 1.558594 -2.753906 1.535156 -2.996094 C 1.542969 -3.097656 1.550781 -3.21875 1.5625 -3.335938 C 1.703125 -4.769531 2.082031 -6.144531 2.949219 -7.347656 C 3.191406 -7.671875 3.457031 -7.992188 3.777344 -8.269531 C 3.949219 -8.417969 4.136719 -8.523438 4.378906 -8.566406 C 4.90625 -8.671875 5.230469 -8.386719 5.128906 -7.851562 Z M 5.128906 -7.851562 "/></g></g></g><g fill="#000000" fill-opacity="1"><g transform="translate(184.280193, 347.684773)"><g><path d="M 0.796875 -4.578125 L 0.796875 -6.140625 L 5.640625 -6.140625 L 5.640625 -4.578125 Z M 0.796875 -4.578125 "/></g></g></g><g fill="#000000" fill-opacity="1"><g transform="translate(199.16543, 347.503807)"><g><path d="M 10.667969 -1.535156 C 9.835938 -3.695312 9.292969 -5.957031 8.792969 -8.203125 C 8.695312 -8.65625 8.734375 -8.699219 9.191406 -8.71875 C 9.8125 -8.746094 10.429688 -8.796875 11.042969 -8.925781 C 11.21875 -8.980469 11.375 -9.011719 11.527344 -9.105469 C 11.625 -9.152344 11.71875 -9.21875 11.710938 -9.359375 C 11.714844 -9.519531 11.59375 -9.570312 11.46875 -9.621094 C 11.242188 -9.703125 11.023438 -9.664062 10.785156 -9.625 C 10.171875 -9.515625 9.550781 -9.527344 8.929688 -9.5 C 8.652344 -9.476562 8.5 -9.585938 8.460938 -9.863281 C 8.453125 -9.941406 8.425781 -10.039062 8.417969 -10.140625 C 8.042969 -12.296875 7.691406 -14.472656 7.335938 -16.652344 C 7.171875 -17.703125 7.222656 -17.566406 6.246094 -17.488281 C 5.570312 -17.433594 5.570312 -17.414062 5.441406 -16.742188 C 5.414062 -16.621094 5.382812 -16.476562 5.355469 -16.355469 C 4.78125 -14.222656 4.066406 -12.140625 3.453125 -10.023438 C 3.355469 -9.714844 3.203125 -9.601562 2.882812 -9.636719 C 2.152344 -9.699219 1.417969 -9.640625 0.683594 -9.523438 C -0.269531 -9.386719 -1.121094 -8.996094 -1.851562 -8.355469 C -1.980469 -8.246094 -2.128906 -8.09375 -2.238281 -7.945312 C -2.367188 -7.773438 -2.292969 -7.621094 -2.089844 -7.574219 C -1.761719 -7.5 -1.441406 -7.507812 -1.152344 -7.671875 C -1 -7.761719 -0.847656 -7.855469 -0.714844 -7.945312 C 0.347656 -8.691406 1.542969 -8.828125 2.792969 -8.746094 C 2.953125 -8.742188 3.039062 -8.6875 2.992188 -8.523438 C 2.976562 -8.421875 2.945312 -8.339844 2.933594 -8.238281 C 2.125 -5.566406 1.539062 -2.832031 0.996094 -0.0976562 C 0.964844 0.0429688 0.9375 0.1875 0.910156 0.347656 C 0.898438 0.449219 0.964844 0.503906 1.046875 0.558594 C 1.527344 0.78125 1.835938 0.65625 1.976562 0.144531 C 2.039062 -0.0625 2.101562 -0.289062 2.144531 -0.511719 C 2.367188 -1.492188 2.589844 -2.492188 2.808594 -3.492188 C 3.164062 -5.105469 3.554688 -6.722656 4.007812 -8.324219 C 4.117188 -8.753906 4.136719 -8.753906 4.578125 -8.75 C 4.898438 -8.753906 5.21875 -8.742188 5.542969 -8.726562 C 6.023438 -8.726562 6.023438 -8.726562 6.121094 -8.25 C 6.347656 -7.167969 6.613281 -6.085938 6.960938 -5.027344 C 7.484375 -3.484375 8.105469 -1.992188 8.976562 -0.617188 C 9.597656 0.378906 10.46875 0.707031 11.578125 0.539062 C 12.035156 0.484375 12.359375 0.277344 12.609375 -0.0859375 C 12.808594 -0.378906 12.960938 -0.714844 13.074219 -1.042969 C 13.742188 -2.761719 14.320312 -4.535156 14.78125 -6.316406 C 14.921875 -6.808594 15.023438 -7.296875 15.101562 -7.804688 C 15.140625 -8.070312 15.050781 -8.203125 14.808594 -8.242188 C 14.664062 -8.25 14.546875 -8.242188 14.402344 -8.269531 C 14.199219 -8.316406 14.085938 -8.226562 14.042969 -8.019531 C 14.027344 -7.941406 14.015625 -7.839844 13.984375 -7.753906 C 13.4375 -5.546875 12.726562 -3.402344 11.808594 -1.34375 C 11.671875 -1.03125 11.515625 -0.71875 11.257812 -0.417969 C 10.949219 -0.792969 10.820312 -1.164062 10.667969 -1.535156 Z M 5.378906 -13.027344 C 5.566406 -12.921875 5.5 -12.773438 5.507812 -12.65625 C 5.601562 -11.761719 5.671875 -10.863281 5.804688 -9.972656 C 5.875 -9.59375 5.855469 -9.574219 5.496094 -9.566406 C 5.132812 -9.554688 4.773438 -9.546875 4.382812 -9.65625 C 4.714844 -10.785156 5.046875 -11.898438 5.378906 -13.027344 Z M 5.378906 -13.027344 "/></g></g></g><g fill="#000000" fill-opacity="1"><g transform="translate(221.60071, 345.223911)"><g><path d="M -1.746094 -6.441406 C -1.394531 -5 -0.902344 -3.601562 -0.164062 -2.28125 C 0.210938 -1.574219 0.683594 -0.921875 1.296875 -0.371094 C 1.75 0.0429688 2.285156 0.238281 2.90625 0.199219 C 3.871094 0.144531 4.597656 -0.253906 5.066406 -1.101562 C 5.210938 -1.34375 5.332031 -1.609375 5.453125 -1.851562 C 6.089844 -3.308594 6.285156 -4.859375 6.625 -6.394531 C 6.636719 -6.457031 6.625 -6.515625 6.621094 -6.554688 C 6.628906 -6.636719 6.574219 -6.710938 6.507812 -6.738281 C 6.160156 -6.90625 5.820312 -6.75 5.714844 -6.390625 C 5.695312 -6.265625 5.671875 -6.160156 5.648438 -6.054688 C 5.289062 -4.761719 5.015625 -3.441406 4.546875 -2.191406 C 4.40625 -1.804688 4.25 -1.414062 3.976562 -1.085938 C 3.472656 -0.4375 3.027344 -0.445312 2.558594 -1.101562 C 2.53125 -1.136719 2.480469 -1.191406 2.453125 -1.246094 C 1.804688 -2.375 1.328125 -3.574219 1.0625 -4.847656 C 1.007812 -5.0625 1.039062 -5.25 1.148438 -5.449219 C 2.195312 -7.503906 2.8125 -9.6875 3.304688 -11.914062 C 3.527344 -12.921875 3.605469 -13.949219 3.503906 -14.964844 C 3.449219 -15.683594 3.277344 -16.367188 2.894531 -16.992188 C 2.347656 -17.855469 1.382812 -18.1875 0.429688 -17.832031 C -0.335938 -17.546875 -0.855469 -16.996094 -1.25 -16.304688 C -1.703125 -15.480469 -1.945312 -14.59375 -2.105469 -13.695312 C -2.445312 -11.796875 -2.347656 -9.929688 -2.0625 -7.890625 C -1.980469 -7.519531 -1.894531 -6.984375 -1.746094 -6.441406 Z M 0.519531 -6.949219 C -0.09375 -9.765625 -0.289062 -12.609375 0.285156 -15.457031 C 0.367188 -15.835938 0.449219 -16.195312 0.617188 -16.542969 C 0.859375 -17.050781 1.117188 -17.070312 1.457031 -16.597656 C 1.871094 -16.039062 2.078125 -15.402344 2.148438 -14.707031 C 2.316406 -13.273438 2.203125 -11.859375 1.859375 -10.464844 C 1.605469 -9.394531 1.332031 -8.335938 0.96875 -7.304688 C 0.878906 -7.109375 0.8125 -6.894531 0.710938 -6.65625 C 0.535156 -6.75 0.535156 -6.851562 0.519531 -6.949219 Z M 0.519531 -6.949219 "/></g></g></g><g fill="#000000" fill-opacity="1"><g transform="translate(236.313407, 342.619507)"><g><path d="M 9.148438 -7.90625 C 8.804688 -7.96875 8.75 -7.933594 8.648438 -7.5 C 8.417969 -6.5625 8.230469 -5.613281 7.996094 -4.695312 C 7.722656 -3.585938 7.46875 -2.476562 7.039062 -1.429688 C 6.976562 -1.253906 6.945312 -1.039062 6.746094 -0.929688 C 6.574219 -1.136719 6.523438 -1.351562 6.46875 -1.585938 C 6.269531 -2.339844 6.105469 -3.121094 5.984375 -3.894531 C 5.613281 -6.003906 5.242188 -8.09375 4.773438 -10.183594 C 4.714844 -10.414062 4.660156 -10.648438 4.546875 -10.871094 C 4.480469 -10.976562 4.414062 -11.085938 4.277344 -11.050781 C 3.734375 -10.925781 3.175781 -10.855469 2.691406 -10.554688 C 2.53125 -10.457031 2.417969 -10.410156 2.234375 -10.40625 C 1.78125 -10.402344 1.335938 -10.378906 0.910156 -10.175781 C -0.390625 -9.601562 -1.023438 -8.53125 -1.265625 -7.199219 C -1.472656 -6.082031 -1.359375 -4.980469 -1.023438 -3.910156 C -0.878906 -3.386719 -0.660156 -2.886719 -0.324219 -2.429688 C -0.0117188 -1.96875 0.429688 -1.847656 0.953125 -1.96875 C 1.386719 -2.050781 1.71875 -2.292969 1.9375 -2.675781 C 2.136719 -3.050781 2.308594 -3.460938 2.433594 -3.878906 C 2.5625 -4.300781 2.6875 -4.722656 2.832031 -5.164062 C 2.996094 -5.082031 2.964844 -4.949219 3.003906 -4.855469 C 3.222656 -4.105469 3.425781 -3.332031 3.742188 -2.605469 C 4.054688 -1.796875 4.40625 -0.996094 4.996094 -0.332031 C 5.777344 0.550781 7.242188 0.390625 7.816406 -0.648438 C 8.035156 -1.03125 8.1875 -1.433594 8.289062 -1.871094 C 8.746094 -3.683594 9.15625 -5.523438 9.5 -7.371094 C 9.585938 -7.804688 9.554688 -7.835938 9.148438 -7.90625 Z M 2.558594 -9.023438 C 2.589844 -8.804688 2.605469 -8.5625 2.554688 -8.34375 C 2.257812 -6.632812 1.894531 -4.945312 1.359375 -3.296875 C 1.273438 -3.050781 1.253906 -2.699219 0.925781 -2.703125 C 0.59375 -2.707031 0.667969 -3.09375 0.574219 -3.320312 C 0.550781 -3.417969 0.523438 -3.535156 0.496094 -3.648438 C 0.207031 -5.058594 0.15625 -6.488281 0.628906 -7.890625 C 0.761719 -8.273438 0.917969 -8.660156 1.140625 -9.019531 C 1.261719 -9.210938 1.410156 -9.371094 1.628906 -9.484375 C 2.101562 -9.738281 2.492188 -9.5625 2.558594 -9.023438 Z M 2.558594 -9.023438 "/></g></g></g></svg>