<svg id="visual" viewBox="0 0 960 540" width="960" height="540" xmlns="http://www.w3.org/2000/svg" xmlns:xlink="http://www.w3.org/1999/xlink" version="1.1"><rect x="0" y="0" width="960" height="540" fill="#fff"></rect><path d="M0 426L40 416.8C80 407.7 160 389.3 240 382C320 374.7 400 378.3 480 397.7C560 417 640 452 720 460.2C800 468.3 880 449.7 920 440.3L960 431L960 541L920 541C880 541 800 541 720 541C640 541 560 541 480 541C400 541 320 541 240 541C160 541 80 541 40 541L0 541Z" fill="#a99981" stroke-linecap="round" stroke-linejoin="miter"></path></svg>