<svg id="visual" viewBox="0 0 900 600" width="900" height="600" xmlns="http://www.w3.org/2000/svg" xmlns:xlink="http://www.w3.org/1999/xlink" version="1.1"><rect x="0" y="0" width="900" height="600" fill="#a99981"></rect><path d="M0 500L37.5 503.2C75 506.3 150 512.7 225 500C300 487.3 375 455.7 450 452.3C525 449 600 474 675 492.8C750 511.7 825 524.3 862.5 530.7L900 537L900 601L862.5 601C825 601 750 601 675 601C600 601 525 601 450 601C375 601 300 601 225 601C150 601 75 601 37.5 601L0 601Z" fill="#fff" stroke-linecap="round" stroke-linejoin="miter"></path></svg>